<?xml version="1.0" standalone="no"?>
<!DOCTYPE svg PUBLIC "-//W3C//DTD SVG 20010904//EN"
 "http://www.w3.org/TR/2001/REC-SVG-20010904/DTD/svg10.dtd">
<svg version="1.0" xmlns="http://www.w3.org/2000/svg"
 width="500.000000pt" height="189.000000pt" viewBox="0 0 500.000000 189.000000"
 preserveAspectRatio="xMidYMid meet">

<g transform="translate(0.000000,189.000000) scale(0.100000,-0.100000)"
fill="#000000" stroke="none">
<path d="M1035 1594 c-137 -13 -269 -39 -399 -76 l-68 -20 5 -216 c8 -362 59
-546 203 -733 76 -99 205 -201 335 -264 l56 -28 83 44 c198 105 360 281 426
459 58 159 75 272 81 522 l5 216 -68 20 c-99 29 -158 42 -254 58 -87 14 -333
25 -405 18z m79 -114 l29 0 -20 -22 c-16 -17 -20 -31 -16 -53 6 -29 5 -30 -14
-12 -11 9 -23 17 -28 17 -5 0 -17 -8 -28 -17 -20 -18 -20 -17 -14 15 5 25 2
35 -13 44 -28 18 -25 28 9 28 23 0 30 6 36 28 l8 27 10 -27 c9 -22 17 -28 41
-28z m198 0 c33 0 36 -10 8 -28 -15 -9 -19 -19 -14 -37 7 -28 2 -30 -26 -13
-16 10 -23 9 -41 -7 l-22 -20 6 30 c4 22 0 36 -16 53 l-20 22 30 0 c25 0 32 5
38 28 l8 27 10 -27 c8 -21 17 -28 39 -28z m-394 -40 l27 -1 -23 -18 c-18 -16
-21 -24 -12 -45 11 -29 3 -33 -25 -12 -17 12 -23 12 -44 -2 -24 -16 -24 -16
-17 13 6 23 3 32 -16 47 l-23 18 28 0 c23 0 31 6 40 31 l12 31 13 -31 c9 -24
18 -31 40 -31z m599 0 l28 0 -23 -18 c-19 -15 -22 -24 -16 -47 7 -29 7 -29
-17 -13 -21 14 -27 14 -44 2 -28 -21 -36 -17 -25 12 9 21 6 29 -12 45 l-23 18
28 1 c22 0 30 6 39 31 l11 31 13 -31 c10 -24 19 -31 41 -31z m-825 -42 c2 -16
12 -24 32 -28 28 -5 28 -5 8 -23 -16 -15 -19 -24 -12 -43 11 -27 4 -30 -24 -9
-16 12 -22 12 -43 -2 l-25 -17 6 31 c6 25 3 34 -16 47 l-22 16 27 0 c20 0 31
7 39 25 14 31 26 32 30 3z m976 -3 c8 -18 19 -25 39 -25 l27 0 -22 -16 c-19
-13 -22 -22 -16 -47 l6 -31 -25 17 c-21 14 -27 14 -43 2 -28 -21 -35 -18 -24
9 7 19 4 28 -12 43 -20 18 -20 18 8 23 20 4 30 12 32 28 4 29 16 28 30 -3z
m-494 -114 c10 -11 15 -24 12 -30 -9 -13 25 -31 66 -34 23 -2 36 -10 45 -26 6
-14 19 -28 27 -33 9 -5 16 -17 16 -27 0 -23 17 -37 52 -46 23 -6 27 -12 26
-41 -2 -41 1 -43 38 -46 16 -1 37 -8 46 -16 10 -8 26 -12 37 -9 11 3 25 -1 31
-8 12 -14 1 -44 -39 -110 -13 -22 -24 -41 -23 -42 8 -11 -1 -23 -17 -23 -23 0
-36 -16 -21 -25 5 -3 15 -16 21 -27 11 -20 9 -21 -25 -15 -19 3 -38 1 -42 -4
-3 -5 -9 -7 -13 -5 -10 6 -42 -49 -39 -66 2 -7 -7 -14 -19 -16 -17 -2 -26 3
-32 21 -6 14 -15 28 -21 32 -11 7 -96 -30 -106 -46 -3 -5 -16 -9 -29 -9 -27 0
-43 -35 -31 -66 11 -28 -21 -66 -52 -62 -25 3 -27 6 -25 41 2 22 -7 68 -18
103 -22 68 -60 109 -108 116 -19 2 -28 14 -40 51 -9 27 -27 57 -40 66 -19 15
-23 24 -18 49 5 26 3 31 -18 36 -30 8 -33 41 -6 56 14 7 27 7 45 -1 22 -10 28
-9 43 9 11 13 37 25 68 30 44 7 50 11 47 31 -2 26 37 70 56 63 7 -2 12 5 12
15 0 11 5 24 12 31 9 9 7 13 -5 18 -30 11 -19 43 21 63 48 24 46 24 66 2z"/>
<path d="M503 1470 c0 -47 2 -66 4 -42 2 23 2 61 0 85 -2 23 -4 4 -4 -43z"/>
<path d="M1823 1470 c0 -47 2 -66 4 -42 2 23 2 61 0 85 -2 23 -4 4 -4 -43z"/>
<path d="M2080 880 l0 -161 93 3 92 3 0 35 0 35 -52 3 c-45 3 -53 6 -53 23 0
16 7 19 50 19 l50 0 0 40 0 40 -50 0 c-43 0 -50 3 -50 19 0 17 8 20 53 23 l52
3 0 35 0 35 -92 3 -93 3 0 -161z m170 120 c0 -17 -7 -20 -50 -20 l-50 0 0 -40
0 -40 50 0 c43 0 50 -3 50 -20 0 -17 -7 -20 -50 -20 l-50 0 0 -40 0 -40 50 0
c43 0 50 -3 50 -20 0 -18 -7 -20 -80 -20 l-80 0 0 140 0 140 80 0 c73 0 80 -2
80 -20z"/>
<path d="M2394 856 c-3 -8 -4 -23 -2 -33 3 -15 14 -18 68 -18 l65 0 3 33 3 32
-66 0 c-48 0 -67 -4 -71 -14z m116 -22 c0 -24 -2 -25 -47 -22 -41 3 -48 6 -51
26 -3 20 0 22 47 22 48 0 51 -2 51 -26z"/>
</g>
</svg>
